<?xml version="1.0" encoding="utf-8"?>
<!-- Generator: Adobe Illustrator 22.1.0, SVG Export Plug-In . SVG Version: 6.00 Build 0)  -->
<svg version="1.1" id="Слой_1" xmlns="http://www.w3.org/2000/svg" xmlns:xlink="http://www.w3.org/1999/xlink" x="0px" y="0px"
	 viewBox="0 0 200 200" style="enable-background:new 0 0 200 200;" xml:space="preserve">
<style type="text/css">
	.st0{fill:none;stroke:#03594B;stroke-width:10;stroke-miterlimit:10;}
	.st1{fill:#03594B;}
	.st2{fill:#03594B;stroke:#03594B;stroke-width:10;stroke-miterlimit:10;}
	.st3{fill:#FFFFFF;}
	.st4{fill:none;stroke:#ADDB21;stroke-width:10;stroke-miterlimit:10;}
	.st5{fill:#FFFFFF;stroke:#ADDB21;stroke-width:10;stroke-miterlimit:10;}
</style>
<path class="st0" d="M113.4,175.3H30.5c-1.6,0-3-1.4-3-3V37.5c0-1.7,1.4-3,3-3H136c1.6,0,3,1.3,3,3V76"/>
<rect x="31.8" y="37.3" class="st1" width="105.5" height="12.5"/>
<polyline class="st2" points="118.4,171.5 31.8,171.5 31.8,160.5 112.8,160.5 "/>
<line class="st2" x1="112.8" y1="160.5" x2="118.8" y2="160.5"/>
<circle class="st3" cx="84.5" cy="167.3" r="6.8"/>
<path class="st4" d="M170.6,72.5h-50c-3.4,0-6.1,2.8-6.1,6.1v104.8c0,3.4,2.8,6.1,6.1,6.1h50c3.4,0,6.1-2.8,6.1-6.1V78.6
	C176.8,75.3,174,72.5,170.6,72.5z"/>
<rect x="118.8" y="76.5" class="st5" width="51.7" height="4.1"/>
<rect x="118.8" y="176.5" class="st5" width="55.3" height="9.5"/>
<circle class="st3" cx="147" cy="182.8" r="6"/>
</svg>
