<?xml version="1.0" encoding="utf-8"?>
<!-- Generator: Adobe Illustrator 22.1.0, SVG Export Plug-In . SVG Version: 6.00 Build 0)  -->
<svg version="1.1" id="Слой_1" xmlns="http://www.w3.org/2000/svg" xmlns:xlink="http://www.w3.org/1999/xlink" x="0px" y="0px"
	 viewBox="0 0 200 200" style="enable-background:new 0 0 200 200;" xml:space="preserve">
<style type="text/css">
	.st0{fill:#03594B;}
	.st1{fill:#FFFFFF;}
	.st2{fill:none;stroke:#ADDB21;stroke-width:14;stroke-miterlimit:10;}
	.st3{fill:none;stroke:#ADDB21;stroke-width:8;stroke-miterlimit:10;}
</style>
<rect x="15" y="44.4" transform="matrix(0.9848 0.1736 -0.1736 0.9848 18.2978 -2.9412)" class="st0" width="22" height="117.4"/>
<rect x="40.7" y="44.2" transform="matrix(0.9848 0.1736 -0.1736 0.9848 18.6527 -7.4527)" class="st0" width="22.5" height="117.4"/>
<rect x="41.3" y="89.5" transform="matrix(0.9848 0.1736 -0.1736 0.9848 16.7599 -8.0308)" class="st1" width="25.9" height="4.6"/>
<rect x="19.7" y="62.7" transform="matrix(0.9848 0.1736 -0.1736 0.9848 11.7772 -4.6884)" class="st1" width="25.9" height="4.6"/>
<rect x="16" y="72.9" transform="matrix(0.9848 0.1736 -0.1736 0.9848 13.4944 -3.8973)" class="st1" width="25.9" height="4.6"/>
<rect x="75" y="141.3" class="st0" width="104.2" height="22"/>
<polyline class="st0" points="111.6,134.6 179.2,134.6 179.2,112.6 114.6,112.6 111.6,112.6 "/>
<polyline class="st0" points="106.3,112.6 101,112.6 96.5,112.6 75,112.6 75,134.6 106.3,134.6 "/>
<polyline class="st0" points="132.8,104.6 75,104.6 75,82.6 129.4,82.6 "/>
<rect x="75" y="54.9" class="st0" width="104.2" height="22"/>
<rect x="87" y="64.9" transform="matrix(-1.836970e-16 1 -1 -1.836970e-16 167.173 -32.827)" class="st1" width="25.9" height="4.6"/>
<rect x="96.1" y="64.9" transform="matrix(-1.836970e-16 1 -1 -1.836970e-16 176.2677 -41.9217)" class="st1" width="25.9" height="4.6"/>
<rect x="75.3" y="150" transform="matrix(-1.836970e-16 1 -1 -1.836970e-16 240.6252 64.0113)" class="st1" width="25.9" height="4.6"/>
<rect x="87.1" y="147.6" transform="matrix(-1.836970e-16 1 -1 -1.836970e-16 252.405 52.2315)" class="st1" width="25.9" height="9.4"/>
<ellipse class="st2" cx="156.5" cy="94.2" rx="30.3" ry="19"/>
<line class="st2" x1="157.4" y1="161.7" x2="157.4" y2="114"/>
<line class="st3" x1="186.8" y1="143.2" x2="153.6" y2="143.6"/>
<line class="st3" x1="186.8" y1="157.7" x2="156.5" y2="157.7"/>
</svg>
