<?xml version="1.0" encoding="UTF-8"?>
<!DOCTYPE svg PUBLIC "-//W3C//DTD SVG 1.1//EN" "http://www.w3.org/Graphics/SVG/1.1/DTD/svg11.dtd">
<!-- Creator: CorelDRAW X7 -->
<svg xmlns="http://www.w3.org/2000/svg" xml:space="preserve" width="2242px" height="336px" version="1.1" style="shape-rendering:geometricPrecision; text-rendering:geometricPrecision; image-rendering:optimizeQuality; fill-rule:evenodd; clip-rule:evenodd"
viewBox="0 0 2242 336"
 xmlns:xlink="http://www.w3.org/1999/xlink">
 <defs>
  <style type="text/css">
   <![CDATA[
    .fil1 {fill:#D7B56D}
    .fil0 {fill:#016350}
   ]]>
  </style>
 </defs>
 <g id="Layer_x0020_1">
  <metadata id="CorelCorpID_0Corel-Layer"/>
  <g id="_1956229327328">
   <path class="fil0" d="M0 121l35 -11 -35 -18 274 -92 274 92 -35 18 35 11 -35 18 35 12 0 0 -32 16 32 11 -137 69 0 4c0,47 -61,85 -137,85 -76,0 -137,-38 -137,-85l0 -4 -137 -69c0,0 28,-9 32,-11l-32 -16 35 -12 -35 -18zm139 10l-68 -34 203 -68 203 68 -68 34c-12,-40 -68,-70 -135,-70 -67,0 -123,30 -135,70zm272 45l0 -15c0,47 -61,85 -137,85 -76,0 -137,-38 -137,-85l0 15c0,47 61,85 137,85 76,0 137,-38 137,-85zm0 29l0 -15c0,48 -61,86 -137,86 -76,0 -137,-38 -137,-86l0 15c0,47 61,86 137,86 76,0 137,-39 137,-86zm0 30l0 -15c0,47 -61,86 -137,86 -76,0 -137,-39 -137,-86l0 15c0,47 61,86 137,86 76,0 137,-39 137,-86zm85 -117l17 6 -102 52c0,-5 0,-10 0,-15l85 -43zm0 30l17 6 -102 51c0,-5 0,-10 0,-15l85 -42zm-447 28l-17 6 105 53 0 -15 -88 -44zm4 -28l-18 6 102 51 0 -15 -84 -42zm0 -30l-18 6 102 52 0 -15 -84 -43zm464 64l-106 53c0,-5 0,-10 0,-15l88 -44 18 6zm-106 -37l102 -51 -239 -80 -239 80 102 51 0 2c0,47 61,85 137,85 76,0 137,-38 137,-85l0 -2 0 0z"/>
   <path class="fil1" d="M411 145l0 102 0 0 0 4c0,47 -61,85 -137,85 -75,0 -137,-38 -137,-85l0 -16c0,47 62,86 137,86 76,0 137,-39 137,-86l0 -15c0,47 -61,86 -137,86 -75,0 -137,-39 -137,-86l0 -15c0,48 62,86 137,86 76,0 137,-38 137,-86l0 -15c0,48 -61,86 -137,86 -75,0 -137,-38 -137,-85l0 -15c0,47 62,85 137,85 76,0 137,-38 137,-85l0 -15c0,47 -61,85 -137,85 -75,0 -137,-38 -137,-85l0 -15 0 0 0 0c0,48 62,86 137,86 65,0 120,-28 134,-66 2,-6 3,-13 3,-19l0 -2 0 0 0 0zm-274 0l0 0 0 0 0 0 0 0z"/>
   <path class="fil1" d="M366 99c19,13 31,29 31,47 0,18 -12,35 -31,47l0 -17c10,-9 16,-19 16,-30 0,-10 -6,-21 -16,-29l0 -18z"/>
  </g>
  <path class="fil0" d="M1035 102l0 81c0,10 0,26 -7,32 -2,2 -8,4 -13,4 -2,0 -5,0 -6,-1l0 19c3,1 6,2 10,2 11,0 18,-4 23,-9 13,-10 14,-25 14,-41l0 -67 44 0 0 115 21 0 0 -135 -86 0zm-127 83l21 -45 20 45 -41 0zm63 52l23 0 -64 -142 -67 142 22 0 15 -32 57 0 14 32zm-157 -115l8 0c8,0 26,1 26,20 0,19 -16,21 -25,21l-9 0 0 -41zm-21 -20l0 135 21 0 0 -54 9 0c10,0 22,-2 33,-11 6,-6 13,-15 13,-29 0,-10 -4,-24 -17,-33 -10,-7 -21,-8 -30,-8l-29 0zm759 135l15 -81 38 88 40 -88 13 81 21 0 -25 -145 -48 105 -46 -105 -29 145 21 0zm-112 -16c-28,0 -48,-21 -48,-51 0,-30 20,-51 48,-51 29,0 49,21 49,51 0,30 -20,51 -49,51zm0 -121c-40,0 -70,30 -70,70 0,39 30,70 70,70 41,0 70,-31 70,-70 0,-40 -29,-70 -70,-70zm-139 22l9 0c7,0 25,1 25,20 0,19 -16,21 -25,21l-9 0 0 -41zm-21 -20l0 135 21 0 0 -54 9 0c10,0 23,-2 33,-11 7,-6 13,-15 13,-29 0,-10 -3,-24 -17,-33 -10,-7 -20,-8 -29,-8l-30 0zm838 135l38 0 0 -58 39 58 47 0 -53 -69 52 -66 -45 0 -40 57 0 -57 -38 0 0 135zm-146 0l38 0 0 -54 46 0 0 54 38 0 0 -135 -38 0 0 49 -46 0 0 -49 -38 0 0 135zm-82 -102l16 49 -31 0 15 -49zm-71 102l41 0 7 -23 46 0 8 23 40 0 -48 -135 -46 0 -48 135zm-76 -27l0 -28 16 0c12,0 19,4 19,14 0,11 -8,14 -19,14l-16 0zm-38 27l57 0c10,0 53,1 53,-41 0,-41 -42,-41 -53,-41l-19 0 0 -20 61 0 0 -33 -99 0 0 135zm-555 -135l0 135 21 0 0 -115 58 0 0 115 20 0 0 -135 -99 0zm-487 0l49 95 -18 40 21 0 61 -135 -21 0 -31 70 -36 -70 -25 0z"/>
 </g>
</svg>
